<?xml version="1.0" encoding="UTF-8"?>
<svg id="Layer_1" data-name="Layer 1" xmlns="http://www.w3.org/2000/svg" viewBox="0 0 920 920">
  <defs>
    <style>
      .cls-1 {
        fill: #608743;
      }

      .cls-2 {
        fill: #f2c423;
      }

      .cls-3 {
        fill: #f7f7f7;
      }

      .cls-4 {
        fill: #555;
      }
    </style>
  </defs>
  <g id="Layer_3" data-name="Layer 3">
    <rect width="920" height="920"/>
  </g>
  <g id="Layer_1-2" data-name="Layer 1">
    <g>
      <path class="cls-4" d="M725.44,393.87l-87.31-.05c-4.27,0-6.52-2.8-6.52-6.87l-.07-82.88c0-4,2.4-6.56,6.31-6.56l87.11.02c3.56.25,6.11,1.79,6.05,5.49v84.92c0,3.01-1.88,5.92-5.57,5.92h0Z"/>
      <path class="cls-4" d="M612.3,393.84l-89.06-.04c-3.23,0-5.19-2.79-5.19-5.82l.1-84.87c0-3.63,2.46-5.51,5.89-5.52l87.54-.12c3.09,0,5.4,2.58,5.4,5.59v85.88c0,2.05-1.81,4.89-4.68,4.89h0Z"/>
      <path class="cls-2" d="M405.23,390.08c.72.46.81-.3.81-1.2l-.23-87.98c.82-2.21,2.78-3.92,5.32-3.92l86.69.02c2.07,0,6.04,1.89,6.04,4.03l.15,85.97c0,2.27-1.15,6.84-4.14,6.84l-90.73-.02c-2.14,0-3.23-2.63-3.92-3.75h.01Z"/>
      <path class="cls-2" d="M385.3,394.03l-88.22-.17c-2.89,0-5.17-1.85-5.16-4.92l.11-88.87c0-1.99,3.42-3.15,5.11-3.14l85.88.08c2.2,0,6.93,1.35,6.94,4.06l.16,87.86c0,2.78-1.67,4.47-4.8,5.11h-.02Z"/>
      <path class="cls-1" d="M270.97,393.95l-86.85-.14c-3.64,0-5.47-2.32-5.45-5.83l.45-86.91c.02-3.29,5.36-3.73,7.86-3.73h82.9c1.96.02,3.81.55,5.04,1.37,1.42.94,2.09,3.04,2.09,5.35l-.09,83.91c0,3.77-2.25,5.99-5.95,5.98Z"/>
      <path class="cls-2" d="M276.12,410.92l-.15,83.95c0,.75.56,1.24.91,1.14-.21,2.73-.93,5.84-3.86,5.84l-90.02.05c-2.47,0-5.05-.9-5.04-3.98l.25-87.49c3.24-4.71,10.04-2.96,14.79-2.96h74.96c3.56.01,7.86-.71,8.15,3.46h0Z"/>
      <path class="cls-4" d="M725.97,608l-88.88.06c-3.31,0-5.16-1.84-5.52-5.15v-83.92c.35-3.3,2.22-5.2,5.51-5.2h88.94c2.92.01,4.46,1.67,4.99,4.45v85.39c-.61,2.86-2.12,4.36-5.04,4.36h0Z"/>
      <path class="cls-4" d="M611.89,608.03l-88.96.02c-3.02,0-4.82-2.04-4.82-5.14l-.05-83.87c0-3.09,1.81-5.34,5.01-5.34l87.9.02c3.51,0,5.96,1.6,5.96,5.38l-.05,83.64c0,3.03-1.98,5.29-4.99,5.29h0Z"/>
      <path class="cls-4" d="M725,501.78l-88.55-.16c-3.23,0-4.91-2.46-4.9-5.65l.19-81.95c0-1.87.32-3.46,1.14-4.66.64-.93,2.22-1.54,4.12-1.54h88.94c3.27,0,5.14,2.07,5.13,5.21l-.16,83.6c0,3.37-2.99,5.16-5.91,5.16h0Z"/>
      <path class="cls-4" d="M497.92,501.71l-87.86-.05c-2.68,0-4.97-1.86-4.98-4.75l-.17-83.94c0-3.13,1.96-5.2,5.12-5.2l88.91.04c3.14,0,4.86,2.21,4.86,5.31l.03,82.76c0,3.66-2.49,5.84-5.92,5.83h.01Z"/>
      <path class="cls-4" d="M499.37,607.93l-89.3.07c-3.43,0-5.15-2.68-5.15-6.05l.02-81.88c0-1.84.53-3.53,1.14-4.57.88-1.51,2.81-1.76,4.98-1.76l86.95-.02c3.67,0,5.84,2.73,5.84,6.31l-.02,81.87c0,2.31-1.32,6.02-4.47,6.02h0Z"/>
      <path class="cls-4" d="M611.43,501.76l-87.35-.13c-3.51,0-6.06-1.92-6.04-5.75l.28-82.78c.01-2.98,1.56-5.32,4.73-5.32l88.93-.03c2.54,0,4.91,1.77,4.91,4.48l.04,84.69c0,2.88-2.29,4.83-5.5,4.83h0Z"/>
      <path class="cls-4" d="M271.97,608.05l-88.84-.05c-2.19,0-4.24-1.84-4.24-4.02l.02-85.9c0-1.99,2-4.28,4.09-4.28l88.97-.12c2.51,0,4.94,1.9,4.93,4.54l-.16,85.55c0,2.8-2.23,4.3-4.77,4.3v-.02Z"/>
      <path class="cls-4" d="M384.94,608.03l-88.77-.05c-2.16,0-4.26-1.82-4.26-4.11l.15-86.67c0-3.51,4.54-3.55,6.96-3.55l86.01.11c2.39,0,4.96,1.89,4.96,4.57l.03,84.57c0,3.01-2.18,5.13-5.09,5.12h.01Z"/>
      <path class="cls-4" d="M386.17,501.74l-90.74-.13c-1.82-.44-3.54-1.51-3.54-3.66v-85.87c0-2.54,1.9-3.8,4.19-4.29h88.89c3.27,0,5.16,2.01,5.16,5.25l-.06,83.84c-.35,2.36-1.03,4.2-3.9,4.86h0Z"/>
      <path class="cls-2" d="M405.23,390.08l.59-89.17.23,87.98c0,.89-.09,1.66-.81,1.2h-.01Z"/>
      <path class="cls-2" d="M276.88,496c-.35.1-.91-.39-.91-1.14l.15-83.95c1.97,28.14.45,56.69.76,85.08h0Z"/>
      <g>
        <path class="cls-2" d="M612.16,284.59l-22.15.06c-6.83.02-13.21.05-20.04.05h-41.03c-3.92.01-7.43.5-10.86-2.19l-.12-89.49c0-2.65,1.27-4.98,4.08-4.98l88.97-.04c2.29,0,6.86,1.14,6.86,4.09l-.1,65.87c-.01,7.5.65,14.53.11,21.9-.22,2.96-2.41,4.71-5.71,4.72h-.01Z"/>
        <path class="cls-2" d="M499.28,284.66l-32.31-.07-53.98.44c-3.95.03-8.04-1.35-8.04-6.12l-.06-85.83c0-1.66,1.34-4.98,3.2-4.98l90.89-.05c1.72,0,4.92,1.04,4.92,3.02l.08,87.93c0,2.34-1.72,5.68-4.7,5.67h0Z"/>
        <path class="cls-4" d="M725.89,284.23l-87.82-.03c-1.9,0-3.46-.43-4.57-1.2-1.34-.94-1.73-2.83-1.74-5.03l-.26-83.96c-.01-3.2,2.28-5.94,5.54-5.94l88.87-.07c2.78,0,5.15,2.14,5.15,4.99l-.04,85.89c0,2.92-2.14,5.36-5.13,5.35Z"/>
        <path class="cls-1" d="M271.38,284.26h-86.34c-3.3,0-6.36-1.62-6.35-5.24l.17-86.01c0-2.86,1.61-4.49,4.37-4.92l87.77-.06c2.98,0,5.95,1.65,5.95,5.05l-.03,86.69c-.57,2.75-2.05,4.36-5.54,4.48h0Z"/>
        <path class="cls-1" d="M384.41,284.25l-87.41-.05c-2.96,0-4.52-1.71-5.06-4.51l.03-87.59c0-2.32,1.96-4.05,4.13-4.05l87.88-.03c3.7,0,6.13,2.16,6.12,6.02l-.07,85.74c-.78,2.62-2.13,4.47-5.62,4.47Z"/>
      </g>
    </g>
  </g>
  <g id="Layer_2" data-name="Layer 2">
    <g>
      <path class="cls-3" d="M239.28,719.35l.37-35.64c.02-1.68-.35-3.33-1.22-5.04l-14.09,46.14c-4.1,1-8.33.8-12.46.14l-14.09-44.68-.26,38.58,5.86,1.57c.92,4.04.56,8.01.29,12.56-8.35.68-16.33.45-25.28.27-.43-4.47-.36-8.64-.08-13.08l5.46-1.43-.06-46.94c0-2.04-3.74-1.72-4.95-2.46-1.19-3.73-.86-8.87-.09-13.12l29.56-.08,12.37,39.76,13.4-39.78,29.6.07c.35,4.32,1.42,9.22-.44,13.09-.53,1.1-4.76.15-4.77,2.43l-.22,46.81c2.06,1.25,3.83.89,5.88,1.57.29,4.25.3,8.23,0,12.86l-31.08.26c-.57-4.11-1.19-8.36.21-12.11.55-1.48,3.07-.97,6.12-1.75h-.03Z"/>
      <path class="cls-3" d="M333.99,718.96l-.81-39.32-14.52,45.78c-4.32.31-8.3.57-12.28-.21l-14.4-45.02-.34,38.69,6.02,1.45c1.19,4.04.82,8.16.43,12.75l-25.34.02c-.6-4.56-.58-8.6-.16-12.85,1.85-.93,3.61-.64,5.51-1.87l-.23-46.64c-.01-2.13-4.02-1.45-4.49-2.52-1.73-3.95-1.01-8.63-.43-13.05l29.6-.08,12.5,39.01,13.3-38.82,29.57-.14c1.17,4.18.3,8.13.57,12.57l-5.6,2.69-.03,47.34c2.33.77,4.03.61,5.64,1.7.34,4.33.33,8.23-.03,12.62l-31.08.09c-.86-4.41-.83-8.35-.12-12.54,1.84-1.02,3.28-.86,6.72-1.66h0Z"/>
      <path class="cls-3" d="M410.13,718.4c6.49.94,12.54.33,18.89.17l2.82-6.39c2.33-1.73,5.9-1.04,9.1-.52l-.14,21.48-54.51.19c-1.19-4.2-.93-9.41-.22-13.3.62-.85,4.68-.23,4.69-1.71l.08-46.59c0-2.07-4.01-1.62-4.48-2.7-1.66-3.82-.72-8.38-.3-12.93l53.98-.08.71,21.04c-2.75.74-7.09,1.81-9.58-.33-4.34-3.72,5.15-7.43-20.62-5.74-.71,5.05-.53,9.66-.23,14.86l19.28.6c.94,4.71.65,9.71.23,14.46l-19.55.42-.13,17.06h-.02Z"/>
      <path class="cls-3" d="M478.96,728.36c-4.75,4.92-10.73,7.06-18.06,5.18-16.57-4.25-17.04-28.81-12.07-42.11,2.14-5.71,6.66-9.88,10.81-11.36,7.1-2.53,12.83-1.29,18.88,2.34,3.5-26.61-8.53-3.95-3.66-26.05,7.57-.78,14.63-.57,21.98-.05l.34,62.99c1.08,1.37,3.57,1.37,4.79,2.28.53,3.87.62,7.4.04,11.38-7.26.55-14.04.58-21.22.03-1.19-.09-.71-2.65-1.83-4.62h0ZM479.03,715.91c-.32-7.9,1.12-15.37-.62-22.3-.72-2.86-6.43-2.03-8.37-1.13-6.54,3.05-5.85,19.63-3.14,25.82,1.04,2.39,4.67,3.22,6.84,2.63,1.75-.48,5.41-1.89,5.28-5.03h.01Z"/>
      <path class="cls-3" d="M701.11,721.22c1.42,3.48.45,7.6.46,11.69l-28.33.37c-.85-3.5-1.04-7.93.1-11.46.36-1.1,4.51-.53,4.56-2.43.22-8.72.6-17.12-.05-25.77-.11-1.5-4.04-.89-4.6-1.81-.91-2.97-.6-7.29-.26-10.95l21.39-.35,2.35,5.29c5.63-6.92,15.91-9.15,23.77-4.35,3.88,2.37,4.94,7.78,4.95,12.04l.02,25.96c1.68,1.31,3.44,1.29,5.06,2.25.7,3.75.62,7.26-.19,11.23-7.54.66-15.25.5-22.67.15-1.3-12.63,1.45-24.92-.98-37.35-.69-3.53-10.08-.85-10.37,2.61-.6,7.29-.4,13.81.02,20.81.11,1.74,3.86,1.24,4.77,2.07h0Z"/>
      <path class="cls-3" d="M575.61,720.51c2.21,3.45,1.59,6.92,1.55,10.63-6.69,3.06-14.24,3.87-21.51,1.99-5.65-1.46-9.46-6.07-9.57-11.93l-.53-28.1-6.15-1.14c.06-3.2-1.32-7.45.65-10.22,1.04-1.46,5.57-.49,5.87-3.08l1.13-9.61c5-1.83,10.04-3.99,15.59-5.12,1.55,5.45.33,10.47.97,16.03l12.66.87c.21,3.83.37,7.58-.23,11.22l-12.54.58c.63,8.52-1.06,16.95.66,25.14.94,4.47,7.63,3.77,11.46,2.72v.02Z"/>
      <path class="cls-3" d="M582.17,733.29c-.93-3.75-.66-7.52-.07-11.44l5.2-2.07c.15-8.68.5-17.15-.02-25.96-.09-1.49-3.72-1.11-4.8-1.74-1.36-3.07-.98-7.75-.13-11.33,8-.38,15.11-.41,22.85.08l.16,38.92c2.06,1.07,3.63,1.34,5.57,2.08.62,3.69.48,7.24-.05,11.14l-28.71.32h0Z"/>
      <path class="cls-3" d="M508.46,733.21c-.46-3.92-.96-8.16.33-11.49.42-1.08,4.53-.43,4.63-2.38,2.61-49.16-7.47-10.21-4.82-38.36,7.62-.7,14.66-.5,22.34-.13l.28,38.51c1.5,1.55,3.58,1.31,5.68,2.2.73,3.75.64,7.54,0,11.5l-28.44.15h0Z"/>
      <circle class="cls-3" cx="595.85" cy="664.12" r="10.03"/>
      <circle class="cls-3" cx="521.72" cy="664.26" r="10.01"/>
      <path class="cls-3" d="M661.67,725.87c-6.59,7.31-16.37,9.39-25.69,8.07-14.3-2.04-21.46-14.83-21.1-28.33.42-16.33,11.65-27.47,28.13-26.82,13.43.53,23.7,9.53,24.93,23.35.73,8.12-.2,17.02-6.27,23.74h0ZM647.16,718.57c3.27-8.02,4.05-26.86-5.74-26.64-9.57.21-7.99,19.97-4.91,27.03,1.65,3.79,9.06,3.5,10.65-.39h0Z"/>
    </g>
  </g>
</svg>